<svg width="24" height="24" viewBox="0 0 24 24" fill="none" xmlns="http://www.w3.org/2000/svg">
<path d="M18.9521 7.59C18.9872 7.56294 19.0199 7.53282 19.0496 7.5L20.1109 6.43875C20.2516 6.29802 20.3307 6.10715 20.3307 5.90812C20.3307 5.7091 20.2516 5.51823 20.1109 5.3775C19.9702 5.23677 19.7793 5.15771 19.5803 5.15771C19.3813 5.15771 19.1904 5.23677 19.0496 5.3775L17.9996 6.45C17.9596 6.49085 17.9244 6.53614 17.8946 6.585C16.4269 5.39601 14.6328 4.68071 12.7496 4.53375V3H14.2496C14.548 3 14.8342 2.88147 15.0451 2.6705C15.2561 2.45952 15.3746 2.17337 15.3746 1.875C15.3746 1.57663 15.2561 1.29048 15.0451 1.0795C14.8342 0.868526 14.548 0.75 14.2496 0.75H9.74965C9.45128 0.75 9.16513 0.868526 8.95415 1.0795C8.74317 1.29048 8.62465 1.57663 8.62465 1.875C8.62465 2.17337 8.74317 2.45952 8.95415 2.6705C9.16513 2.88147 9.45128 3 9.74965 3H11.2496V4.53375C9.13981 4.70228 7.14909 5.57978 5.60136 7.02349C4.05362 8.46721 3.03996 10.3922 2.7253 12.4852C2.41063 14.5782 2.81347 16.7162 3.86828 18.5511C4.92309 20.3861 6.5678 21.8102 8.53481 22.5916C10.5018 23.3731 12.6754 23.4659 14.7019 22.855C16.7284 22.2442 18.4885 20.9655 19.6959 19.2272C20.9034 17.4888 21.4871 15.3931 21.352 13.2808C21.217 11.1686 20.3711 9.16418 18.9521 7.59375V7.59ZM11.9996 21.75C10.4421 21.75 8.91957 21.2881 7.62453 20.4228C6.32949 19.5575 5.32014 18.3276 4.72409 16.8886C4.12805 15.4497 3.9721 13.8663 4.27596 12.3387C4.57982 10.8111 5.32984 9.40787 6.43118 8.30653C7.53252 7.2052 8.93571 6.45517 10.4633 6.15132C11.9909 5.84746 13.5743 6.00341 15.0133 6.59945C16.4522 7.19549 17.6822 8.20485 18.5475 9.49988C19.4128 10.7949 19.8746 12.3175 19.8746 13.875C19.8746 15.9636 19.045 17.9666 17.5681 19.4435C16.0913 20.9203 14.0882 21.75 11.9996 21.75Z" fill="#999999"/>
<path d="M12.0597 12.3755C12.1866 12.3783 12.3126 12.3972 12.4347 12.4317L15.6447 9.22175C15.7855 9.08102 15.9763 9.00195 16.1754 9.00195C16.3744 9.00195 16.5653 9.08101 16.706 9.22175C16.8467 9.36248 16.9258 9.55335 16.9258 9.75237C16.9258 9.95139 16.8467 10.1423 16.706 10.283L13.5035 13.5005C13.538 13.6226 13.5569 13.7486 13.5597 13.8755C13.5597 14.1722 13.4718 14.4622 13.3069 14.7089C13.1421 14.9555 12.9079 15.1478 12.6338 15.2613C12.3597 15.3748 12.0581 15.4046 11.7671 15.3467C11.4761 15.2888 11.2089 15.1459 10.9991 14.9362C10.7893 14.7264 10.6464 14.4591 10.5886 14.1681C10.5307 13.8772 10.5604 13.5756 10.6739 13.3015C10.7875 13.0274 10.9797 12.7931 11.2264 12.6283C11.4731 12.4635 11.7631 12.3755 12.0597 12.3755Z" fill="#999999"/>
</svg>
