<svg width="193" height="56" viewBox="0 0 193 56" fill="none" xmlns="http://www.w3.org/2000/svg">
<path d="M57.2207 13.9688H69.252V15.75H64.0957C63.9082 19.7708 63.2311 22.9896 62.0645 25.4062H68.6895V43.4688H58.3457V29.3125C58.2624 29.3542 58.1999 29.375 58.1582 29.375L57.2207 28.4062C58.3665 25.1979 59.127 20.9792 59.502 15.75H57.2207V13.9688ZM78.9082 19.4062C81.2832 23.6354 84.2936 26.2396 87.9395 27.2188L88.5332 26C84.9082 21.9792 82.502 17.5625 81.3145 12.75H76.4707C75.2832 17.5625 72.877 21.9792 69.252 26L69.8457 27.2188C70.7624 26.9688 71.8249 26.4583 73.0332 25.6875C75.4499 24.1458 77.4082 22.0521 78.9082 19.4062ZM69.8457 41.6562H76.4707V29.625H70.4707V27.8125H87.3145V29.625H81.3145V41.6562H87.9707V43.4688H69.8457V41.6562ZM64.0957 41.6562V27.2188H62.9395V41.6562H64.0957ZM94.187 26V13.9688H120.687V26H94.187ZM114.656 30.8125C113.906 35.8333 111.979 39.5521 108.874 41.9688C107.312 43.1771 105.822 43.875 104.406 44.0625L103.812 42.875C107.02 39.6667 109.031 35.6458 109.843 30.8125H106.843C105.572 35.8333 103.187 39.5521 99.687 41.9688C97.9161 43.1771 96.2807 43.875 94.7807 44.0625L94.187 42.875C97.7911 40.0625 100.395 36.0417 101.999 30.8125H98.7807C97.2182 33.5417 95.0828 35.1458 92.3745 35.625L91.7807 34.4375C93.7807 32.0208 94.9786 29.4062 95.3745 26.5938H100.218C100.072 27.4479 99.864 28.25 99.5932 29H121.874V38.0625C121.874 40.5625 120.874 42.3125 118.874 43.3125C117.874 43.8125 116.874 44.0625 115.874 44.0625L115.249 42.875C116.458 42.0625 117.062 40.4583 117.062 38.0625V30.8125H114.656ZM98.9995 19.0625H115.874V15.75H98.9995V19.0625ZM115.874 20.875H98.9995V24.1875H115.874V20.875ZM126.341 15.1562H139.591V12.75H144.403V15.1562H157.653V16.9688H126.341V15.1562ZM146.841 30.2188L143.809 24.8125H148.622L151.622 30.1875V23.5938H132.341V29.9375C133.799 28.3542 134.809 26.6458 135.372 24.8125H140.184C139.58 27.2292 138.257 29.0312 136.216 30.2188H146.841ZM151.622 30.8125H149.216V41.6562H134.778V30.9062C134.007 31.1771 133.33 31.3333 132.747 31.375L132.341 30.5625V44.0625H127.528V21.7812H132.497L131.153 18.1875H135.966L137.309 21.7812H146.653L148.028 18.1875H152.841L151.466 21.7812H156.434V38.0625C156.434 40.5625 155.434 42.3125 153.434 43.3125C152.434 43.8125 151.434 44.0625 150.434 44.0625L149.809 42.875C151.018 42.0625 151.622 40.4583 151.622 38.0625V30.8125ZM144.403 39.8438V32.0312H139.591V39.8438H144.403ZM160.901 20.5938H163.307V12.75H168.119V20.5938H170.526V22.375H168.119V41.6562H170.526V43.4688H160.901V41.6562H163.307V22.375H160.901V20.5938ZM188.526 16.375L187.994 13.3438L190.994 13.375L191.526 16.375H192.213V18.1875H187.401C187.401 21.5625 187.609 24.8333 188.026 28C188.317 26.1667 188.505 24.2917 188.588 22.375H192.213C192.026 27.4792 191.119 31.9271 189.494 35.7188C190.369 39.0104 191.276 41.5104 192.213 43.2188L191.338 44.0625C190.047 43.3542 188.724 41.9062 187.369 39.7188C185.932 41.8438 184.536 43.2917 183.182 44.0625L182.369 43.0312C183.515 41.5312 184.63 39.3646 185.713 36.5312C183.63 31.6771 182.588 25.5625 182.588 18.1875H176.557V23.5938H182.588V38.0625C182.588 40.5625 181.578 42.3125 179.557 43.3125C178.557 43.8125 177.557 44.0625 176.557 44.0625L175.963 42.875C177.151 42.0625 177.744 40.4583 177.744 38.0625V25.4062H176.557V27.2188C176.557 33.0729 175.797 37.6354 174.276 40.9062C173.526 42.5521 172.776 43.6042 172.026 44.0625L170.776 43.4688C171.422 39.8646 171.744 34.4479 171.744 27.2188V16.375H182.588V12.75H187.401V16.375H188.526Z" fill="#333333"/>
<g clip-path="url(#clip0_272_10370)">
<path d="M29.8157 19.4463C26.7836 19.5246 27.9497 22.3596 29.1134 23.7682C36.7407 33.0011 35.1655 37.3909 34.9327 40.4171L30.0127 45.3978C24.0285 45.2665 11.8609 44.8129 11.0643 44.0499C10.2677 43.2868 8.22814 36.713 7.35398 35.3665L15.7552 38.0294C22.3198 39.7311 19.1659 34.9118 17.5118 32.3888C11.2667 22.8633 12.9921 17.8576 13.8712 16.4084C15.6432 14.1597 21.1113 10.346 21.5825 10.4919C22.0538 10.6378 24.6952 9.75371 27.3085 10.3477L40.8988 16.4919L39.1542 23.0915C35.4194 21.6786 32.0352 19.389 29.8157 19.4463Z" fill="url(#paint0_linear_272_10370)"/>
<path d="M13.2055 49.8771C29.5197 53.8953 36.8721 42.6095 35.0182 34.7717C30.7541 39.8468 21.1087 40.5919 14.0898 37.6771C9.69854 35.9894 7.04242 33.4045 4.988 30.5492L0.793292 44.0976C5.39341 47.5875 10.9848 49.4047 13.2055 49.8771Z" fill="url(#paint1_linear_272_10370)"/>
<path d="M43.7213 14.6361C24.4795 -0.358828 7.93142 9.31863 14.0175 25.6207C11.1108 11.508 23.3873 14.8358 40.2561 25.8282L43.7213 14.6361Z" fill="url(#paint2_linear_272_10370)"/>
</g>
<defs>
<linearGradient id="paint0_linear_272_10370" x1="18.2182" y1="-2.13472" x2="27.4172" y2="41.8583" gradientUnits="userSpaceOnUse">
<stop stop-color="#0097FF"/>
<stop offset="0.3166" stop-color="#0081FF"/>
<stop offset="0.7355" stop-color="#006AFF"/>
<stop offset="1" stop-color="#0062FF"/>
</linearGradient>
<linearGradient id="paint1_linear_272_10370" x1="-1.15672" y1="37.1149" x2="30.644" y2="36.4757" gradientUnits="userSpaceOnUse">
<stop stop-color="#009EFF"/>
<stop offset="0.3139" stop-color="#00A3FF"/>
<stop offset="0.7056" stop-color="#00B3FF"/>
<stop offset="0.998" stop-color="#00C3FF"/>
</linearGradient>
<linearGradient id="paint2_linear_272_10370" x1="14.0824" y1="13.753" x2="41.5038" y2="22.0114" gradientUnits="userSpaceOnUse">
<stop offset="0.0274215" stop-color="#EEFFFF"/>
<stop offset="0.0313559" stop-color="#ECFFFE"/>
<stop offset="0.1869" stop-color="#AFF1D9"/>
<stop offset="0.3411" stop-color="#79E5B9"/>
<stop offset="0.4902" stop-color="#4EDB9F"/>
<stop offset="0.6333" stop-color="#2CD48A"/>
<stop offset="0.7689" stop-color="#14CE7C"/>
<stop offset="0.8938" stop-color="#05CB73"/>
<stop offset="0.9979" stop-color="#00CA70"/>
</linearGradient>
<clipPath id="clip0_272_10370">
<rect width="43.6791" height="55.9093" fill="white"/>
</clipPath>
</defs>
</svg>
