<svg width="19" height="19" viewBox="0 0 19 19" fill="none" xmlns="http://www.w3.org/2000/svg">
<path d="M9.50284 18.9945C9.39375 18.9945 9.28469 18.9626 9.19035 18.899C8.88385 18.6921 1.68515 13.7743 1.52427 8.5168C1.45119 6.12323 2.22395 4.02141 3.75913 2.43853C5.25724 0.893529 7.35085 0.00732422 9.50284 0.00732422C11.6548 0.00732422 13.7484 0.893529 15.2465 2.43853C16.7817 4.02143 17.5545 6.12323 17.4814 8.5168C17.3205 13.7743 10.1218 18.6921 9.81534 18.899C9.72098 18.9626 9.6119 18.9945 9.50284 18.9945ZM9.50284 1.1242C7.65134 1.1242 5.85003 1.88661 4.56081 3.21619C3.24105 4.57713 2.57681 6.39807 2.64115 8.48242C2.76658 12.593 8.13726 16.7579 9.50284 17.7513C10.8684 16.7579 16.2391 12.593 16.3645 8.48242C16.4289 6.39807 15.7646 4.57713 14.4449 3.21619C13.1556 1.88661 11.3543 1.1242 9.50284 1.1242Z" fill="#386BF5"/>
<path d="M9.51098 10.867C7.86563 10.867 6.52734 9.5284 6.52734 7.88305C6.52734 6.23799 7.86565 4.89941 9.51098 4.89941C11.1563 4.89941 12.4952 6.23799 12.4952 7.88305C12.4952 9.5284 11.1563 10.867 9.51098 10.867ZM9.51098 6.01629C8.4819 6.01629 7.64422 6.85368 7.64422 7.88305C7.64422 8.91242 8.4819 9.75007 9.51098 9.75007C10.5406 9.75007 11.3783 8.9124 11.3783 7.88305C11.3783 6.8537 10.5406 6.01629 9.51098 6.01629Z" fill="#386BF5"/>
</svg>
