<svg width="100" height="32" viewBox="0 0 100 32" fill="none" xmlns="http://www.w3.org/2000/svg">
<rect x="0.5" y="0.5" width="31" height="31" rx="1.5" fill="white"/>
<path fill-rule="evenodd" clip-rule="evenodd" d="M18.3072 8.71094L21.32 8.71094C22.1254 8.71094 22.7783 9.36386 22.7783 10.1693L22.7783 13.1821C22.7783 13.5273 22.4985 13.8071 22.1533 13.8071C21.8082 13.8071 21.5283 13.5273 21.5283 13.1821L21.5283 10.8448L17.4671 14.9061C17.223 15.1502 16.8273 15.1502 16.5832 14.9061C16.3391 14.662 16.3391 14.2663 16.5832 14.0222L20.6445 9.96094L18.3072 9.96094C17.962 9.96094 17.6822 9.68112 17.6822 9.33594C17.6822 8.99076 17.962 8.71094 18.3072 8.71094ZM14.9031 16.5866C15.1472 16.8307 15.1472 17.2264 14.9031 17.4705L10.8419 21.5317L13.1792 21.5317C13.5243 21.5317 13.8042 21.8115 13.8042 22.1567C13.8042 22.5018 13.5243 22.7817 13.1792 22.7817H10.1663C9.36093 22.7817 8.70801 22.1287 8.70801 21.3233L8.70801 18.3105C8.70801 17.9653 8.98783 17.6855 9.33301 17.6855C9.67819 17.6855 9.95801 17.9653 9.95801 18.3105L9.95801 20.6478L14.0192 16.5866C14.2633 16.3425 14.659 16.3425 14.9031 16.5866Z" fill="#646566"/>
<rect x="0.5" y="0.5" width="31" height="31" rx="1.5" stroke="#DCDEE0"/>
<rect x="34.5" y="0.5" width="31" height="31" rx="1.5" fill="white"/>
<path fill-rule="evenodd" clip-rule="evenodd" d="M46.8365 12.9545L48.9669 10.8242C49.5364 10.2546 50.4597 10.2546 51.0293 10.8242L53.1596 12.9545C53.4037 13.1986 53.4037 13.5943 53.1596 13.8384C52.9156 14.0825 52.5198 14.0825 52.2758 13.8384L50.6231 12.1857L50.6231 14.0361C50.6233 14.0425 50.6234 14.049 50.6234 14.0555L50.6234 19.2989L52.276 17.6462C52.5201 17.4021 52.9158 17.4021 53.1599 17.6462C53.404 17.8903 53.404 18.286 53.1599 18.5301L51.0295 20.6605C50.46 21.23 49.5366 21.23 48.9671 20.6605L46.8367 18.5301C46.5927 18.286 46.5927 17.8903 46.8367 17.6462C47.0808 17.4021 47.4765 17.4021 47.7206 17.6462L49.3734 19.299L49.3734 14.6154C49.3732 14.6089 49.3731 14.6024 49.3731 14.5959L49.3731 12.1857L47.7204 13.8384C47.4763 14.0825 47.0805 14.0825 46.8365 13.8384C46.5924 13.5943 46.5924 13.1986 46.8365 12.9545Z" fill="#646566"/>
<path fill-rule="evenodd" clip-rule="evenodd" d="M43.333 8.53906C43.333 8.19388 43.6128 7.91406 43.958 7.91406H56.0413C56.3865 7.91406 56.6663 8.19388 56.6663 8.53906C56.6663 8.88424 56.3865 9.16406 56.0413 9.16406H43.958C43.6128 9.16406 43.333 8.88424 43.333 8.53906Z" fill="#646566"/>
<path fill-rule="evenodd" clip-rule="evenodd" d="M43.333 23.0391C43.333 22.6939 43.6128 22.4141 43.958 22.4141H56.0413C56.3865 22.4141 56.6663 22.6939 56.6663 23.0391C56.6663 23.3842 56.3865 23.6641 56.0413 23.6641H43.958C43.6128 23.6641 43.333 23.3842 43.333 23.0391Z" fill="#646566"/>
<rect x="34.5" y="0.5" width="31" height="31" rx="1.5" stroke="#DCDEE0"/>
<rect x="68.5" y="0.5" width="31" height="31" rx="1.5" fill="white"/>
<path fill-rule="evenodd" clip-rule="evenodd" d="M84 14.125C85.0355 14.125 85.875 14.9645 85.875 16C85.875 17.0355 85.0355 17.875 84 17.875C82.9645 17.875 82.125 17.0355 82.125 16C82.125 14.9645 82.9645 14.125 84 14.125ZM87.125 16C87.125 14.2741 85.7259 12.875 84 12.875C82.2741 12.875 80.875 14.2741 80.875 16C80.875 17.7259 82.2741 19.125 84 19.125C85.7259 19.125 87.125 17.7259 87.125 16Z" fill="#646566"/>
<path fill-rule="evenodd" clip-rule="evenodd" d="M81.7956 7.31236C82.5014 7.13378 83.2399 7.03906 83.9996 7.03906C84.7594 7.03906 85.498 7.13379 86.2038 7.3124C86.7797 7.45816 87.0772 7.95559 87.1728 8.36909C87.2862 8.8589 87.5936 9.30014 88.0622 9.57071C88.4931 9.81948 88.9802 9.87792 89.4295 9.77199C89.8425 9.67463 90.419 9.72102 90.8049 10.1713C91.5222 11.0085 92.0881 11.9802 92.4594 13.0438C92.6811 13.6788 92.3377 14.2506 91.975 14.5494C91.5564 14.8943 91.2913 15.4146 91.2913 15.9974C91.2913 16.5802 91.5564 17.1005 91.975 17.4454C92.3377 17.7442 92.6811 18.316 92.4594 18.951C92.0882 20.0145 91.5224 20.986 90.8051 21.8232C90.4192 22.2736 89.8426 22.3199 89.4296 22.2225C88.9803 22.1166 88.4931 22.175 88.0622 22.4238C87.5935 22.6944 87.2861 23.1357 87.1728 23.6256C87.0771 24.0391 86.7797 24.5367 86.2036 24.6824C85.4979 24.861 84.7594 24.9557 83.9996 24.9557C83.2399 24.9557 82.5014 24.861 81.7957 24.6824C81.2196 24.5367 80.9222 24.0392 80.8266 23.6256C80.7132 23.1357 80.4058 22.6944 79.9371 22.4238C79.5062 22.175 79.019 22.1166 78.5697 22.2225C78.1567 22.32 77.58 22.2736 77.1942 21.8232C76.4769 20.9861 75.9111 20.0145 75.5398 18.951C75.3181 18.316 75.6616 17.7442 76.0242 17.4454C76.4428 17.1005 76.708 16.5802 76.708 15.9974C76.708 15.4146 76.4428 14.8942 76.0242 14.5494C75.6616 14.2506 75.3181 13.6788 75.5398 13.0438C75.9111 11.9802 76.477 11.0085 77.1944 10.1713C77.5803 9.72098 78.1568 9.67461 78.5698 9.77198C79.0191 9.87793 79.5063 9.81949 79.9372 9.57071C80.4058 9.30014 80.7132 8.85889 80.8265 8.36907C80.9222 7.95556 81.2196 7.45811 81.7956 7.31236ZM82.1071 8.52293C82.105 8.52472 82.1014 8.52815 82.0965 8.53417C82.0794 8.55497 82.0574 8.59463 82.0443 8.65086C81.8562 9.46409 81.3432 10.2023 80.5622 10.6532C79.8447 11.0675 79.0298 11.1647 78.2829 10.9886C78.2269 10.9754 78.1816 10.9776 78.1554 10.9837C78.1477 10.9855 78.143 10.9872 78.1404 10.9883C77.5252 11.7072 77.0404 12.5401 76.7218 13.4505C76.7224 13.4537 76.7238 13.4591 76.727 13.4673C76.7388 13.4976 76.7683 13.5428 76.8191 13.5846C77.5135 14.1568 77.958 15.0254 77.958 15.9974C77.958 16.9693 77.5135 17.838 76.8191 18.4102C76.7683 18.452 76.7388 18.4972 76.727 18.5274C76.7238 18.5357 76.7224 18.5411 76.7218 18.5443C77.0403 19.4546 77.5251 20.2874 78.1402 21.0062C78.1428 21.0073 78.1475 21.0091 78.1552 21.0109C78.1814 21.017 78.2267 21.0191 78.2827 21.0059C79.0297 20.8297 79.8446 20.927 80.5621 21.3413C81.3433 21.7922 81.8563 22.5306 82.0444 23.3439C82.0574 23.4002 82.0795 23.4398 82.0966 23.4606C82.1015 23.4667 82.1051 23.4701 82.1072 23.4719C82.712 23.6245 83.3459 23.7057 83.9996 23.7057C84.6534 23.7057 85.2873 23.6245 85.8921 23.4719C85.8942 23.4701 85.8978 23.4666 85.9028 23.4606C85.9199 23.4398 85.9419 23.4001 85.9549 23.3439C86.143 22.5306 86.6561 21.7922 87.4372 21.3413C88.1547 20.927 88.9696 20.8298 89.7165 21.0059C89.7726 21.0191 89.8178 21.017 89.844 21.0109C89.8518 21.0091 89.8565 21.0073 89.859 21.0062C90.4741 20.2874 90.9589 19.4546 91.2774 18.5443C91.2769 18.5411 91.2754 18.5357 91.2722 18.5274C91.2604 18.4972 91.2309 18.452 91.1802 18.4102C90.4857 17.838 90.0413 16.9693 90.0413 15.9974C90.0413 15.0255 90.4857 14.1568 91.1802 13.5846C91.2309 13.5428 91.2604 13.4976 91.2722 13.4674C91.2754 13.4591 91.2769 13.4537 91.2774 13.4505C90.9589 12.5401 90.474 11.7072 89.8588 10.9884C89.8563 10.9872 89.8516 10.9855 89.8438 10.9837C89.8176 10.9776 89.7724 10.9754 89.7164 10.9886C88.9695 11.1647 88.1546 11.0675 87.4372 10.6532C86.6562 10.2023 86.1432 9.4641 85.955 8.65088C85.942 8.59466 85.92 8.555 85.9029 8.5342C85.8979 8.52819 85.8943 8.52476 85.8922 8.52296C85.2873 8.37032 84.6534 8.28906 83.9996 8.28906C83.3459 8.28906 82.712 8.3703 82.1071 8.52293ZM85.8899 8.52129C85.8899 8.52125 85.8903 8.52144 85.8909 8.52195L85.8899 8.52129ZM89.8613 10.9897C89.8613 10.9897 89.8609 10.9895 89.8602 10.989L89.8613 10.9897ZM91.2778 13.447C91.2778 13.4469 91.2779 13.4475 91.2777 13.4487C91.2776 13.4476 91.2777 13.447 91.2778 13.447ZM91.2778 18.5478C91.2777 18.5477 91.2776 18.5471 91.2777 18.5461C91.2779 18.5473 91.2778 18.5479 91.2778 18.5478ZM89.8615 21.0049C89.8615 21.0049 89.8612 21.0051 89.8604 21.0055L89.8615 21.0049ZM85.8898 23.4735C85.8898 23.4735 85.8902 23.4732 85.8908 23.4729L85.8898 23.4735ZM82.1095 23.4736C82.1095 23.4736 82.1092 23.4734 82.1085 23.4729L82.1095 23.4736ZM78.1378 21.0049C78.1378 21.0049 78.1382 21.0051 78.1388 21.0056L78.1378 21.0049ZM76.7215 18.5478C76.7214 18.5478 76.7214 18.5473 76.7215 18.5461C76.7216 18.5472 76.7215 18.5478 76.7215 18.5478ZM76.7215 13.447C76.7215 13.447 76.7216 13.4476 76.7215 13.4487C76.7214 13.4475 76.7214 13.4469 76.7215 13.447ZM78.138 10.9896C78.1379 10.9896 78.1383 10.9894 78.139 10.989L78.138 10.9896ZM82.1084 8.52192C82.1091 8.52141 82.1095 8.52122 82.1095 8.52126L82.1084 8.52192Z" fill="#646566"/>
<rect x="68.5" y="0.5" width="31" height="31" rx="1.5" stroke="#DCDEE0"/>
</svg>
