<svg width="24" height="24" viewBox="0 0 24 24" fill="none" xmlns="http://www.w3.org/2000/svg">
<rect width="24" height="24" fill="white"/>
<path d="M12.5458 1.63672C6.52072 1.63672 1.63672 6.52072 1.63672 12.5458C1.63672 18.5709 6.52072 23.4549 12.5458 23.4549C18.5709 23.4549 23.4549 18.5709 23.4549 12.5458C23.4549 6.52072 18.5709 1.63672 12.5458 1.63672ZM5.95781 19.8113C6.98545 17.1625 9.53381 15.2731 12.5458 15.2731C15.5578 15.2731 18.1062 17.1625 19.1338 19.8102C17.3905 21.392 15.0844 22.364 12.5458 22.364C10.0073 22.364 7.70108 21.392 5.95781 19.8113ZM9.27308 10.9094C9.27308 9.10181 10.7382 7.63672 12.5458 7.63672C14.3534 7.63672 15.8185 9.10181 15.8185 10.9094C15.8185 12.7171 14.3534 14.1822 12.5458 14.1822C10.7382 14.1822 9.27308 12.7171 9.27308 10.9094ZM19.9574 18.9724C18.9931 16.868 17.1833 15.2393 14.9447 14.5498C16.1273 13.7698 16.9094 12.4324 16.9094 10.9094C16.9094 8.49963 14.9556 6.54581 12.5458 6.54581C10.136 6.54581 8.18217 8.49963 8.18217 10.9094C8.18217 12.4324 8.96436 13.7698 10.148 14.5509C7.90945 15.2393 6.09963 16.868 5.13526 18.9734C3.63854 17.2498 2.72763 15.0069 2.72763 12.5458C2.72763 7.1229 7.1229 2.72763 12.5458 2.72763C17.9687 2.72763 22.364 7.1229 22.364 12.5458C22.364 15.0069 21.452 17.2498 19.9574 18.9724Z" fill="#333333"/>
</svg>
